<?xml version="1.0" encoding="UTF-8"?>
<svg id="Layer_2" data-name="Layer 2" xmlns="http://www.w3.org/2000/svg" viewBox="0 0 662 471.11">
  <defs>
    <style>
      .cls-1 {
        fill: #000;
      }

      .cls-1, .cls-2 {
        stroke-width: 0px;
      }

      .cls-2 {
        fill: #fff;
      }
    </style>
  </defs>
  <g id="Layer_2-2" data-name="Layer 2">
    <g>
      <path class="cls-2" d="M28.35,469.11c-14.53,0-26.35-11.82-26.35-26.35V58.46c0-14.53,11.82-26.35,26.35-26.35h229.88l.39-.17c5.31-2.35,9.8-12.32,13.4-20.34,1.43-3.18,2.78-6.19,3.61-7.29,1.1-1.47,3.73-2.31,7.21-2.31,1.14,0,1.93.1,1.94.1h.12s95.12.02,95.12.02c3.56,0,6.95,7.67,9.43,13.27,1.33,3.02,2.59,5.87,3.91,7.84,4.34,6.52,11.22,8.71,11.51,8.8l.29.09h228.49c14.53,0,26.35,11.82,26.35,26.35v384.3c0,14.53-11.82,26.35-26.35,26.35H28.35Z"/>
      <path class="cls-1" d="M282.84,4c1,0,1.69.08,1.69.08,0,0,0,0,0,0l.25.03h95.25c.11,0,1.13.08,3,2.91,1.65,2.49,3.15,5.88,4.6,9.16,1.37,3.1,2.66,6.03,4.08,8.14,4.73,7.1,12.26,9.5,12.58,9.6l.58.18h228.79c13.43,0,24.35,10.92,24.35,24.35v384.3c0,13.43-10.92,24.35-24.35,24.35H28.35c-13.43,0-24.35-10.92-24.35-24.35V58.46c0-13.43,10.92-24.35,24.35-24.35h230.3l.77-.34c5.57-2.46,9.65-10.76,14.42-21.35,1.26-2.81,2.69-5.99,3.39-6.91.69-.92,2.89-1.51,5.61-1.51h0M282.84,0c-2.59,0-6.81.44-8.81,3.11-3,4-9.45,24-16.22,27H28.35C12.69,30.11,0,42.8,0,58.46v384.3c0,15.66,12.69,28.35,28.35,28.35h605.3c15.66,0,28.35-12.69,28.35-28.35V58.46c0-15.66-12.69-28.35-28.35-28.35h-228.19s-6.44-2-10.44-8S387.03.11,380.03.11h-95S284.14,0,282.84,0h0Z"/>
    </g>
  </g>
</svg>