<svg width="113" height="64" viewBox="0 0 113 64" fill="none" xmlns="http://www.w3.org/2000/svg">
<path d="M9.39417 20.8907C13.3175 20.42 21.7337 13.342 25.2095 11.2191C30.261 8.13381 35.7773 5.21113 40.8849 2.48769C45.5506 -7.09239e-05 41.3501 7.73908 40.605 9.74144C38.3646 15.7622 37.3943 16.2168 44.174 12.3608C49.3074 9.4412 63.8627 0.183476 60.1993 4.70411C59.3487 5.75369 49.2101 15.2675 49.9823 15.7862C53.2556 17.9854 67.8794 10.5633 71.116 9.0698C76.004 6.81434 79.2934 4.71835 75.4548 10.0773C71.7004 15.3185 68.9865 17.2638 76.9243 17.2638C82.3236 17.2638 96.1579 11.3008 93.0196 15.5176C91.638 17.374 86.0194 20.8907 91.4101 20.8907C95.8655 20.8907 107.286 19.8739 110.864 23.3086C111.689 24.1002 108.531 23.2687 107.365 23.3086C104.559 23.4048 101.914 24.4247 99.1078 24.5176C91.6137 24.7656 99.733 29.0132 102.607 31.7713C105.827 34.8623 107.645 38.8254 107.645 43.2564C107.645 46.4396 104.075 50.7172 101.627 46.2788C99.8948 43.1384 98.9694 43.8609 94.7691 43.8609C92.1878 43.8609 80.7895 42.1718 78.9537 44.1296C77.3138 45.8784 78.8224 52.3179 78.6738 54.7415C78.4191 58.8982 66.7162 53.8078 65.4477 52.8609C61.2127 49.6996 54.2751 46.0223 50.962 42.0475C49.8808 40.7503 44.0901 51.8156 43.4042 53.2639C41.5033 57.2776 37.0021 61.746 32.0675 61.9953C27.5795 62.222 29.5483 54.2311 29.5483 51.249C29.5483 36.3174 19.594 54.1707 12.6132 52.2564C8.99447 51.2641 13.8963 45.3262 14.9925 44.4654C19.2221 41.1441 11.038 39.2492 8.13454 37.8161C6.89052 37.2021 1.1135 33.6963 2.11631 31.7713C3.60231 28.9189 8.13454 32.1317 8.13454 27.54C8.13454 22.9416 4.04932 16.0549 10.6538 16.0549" stroke="#3982F7" stroke-width="3" stroke-linecap="round"/>
</svg> 