<svg width="567" height="176" viewBox="0 0 567 176" fill="none" xmlns="http://www.w3.org/2000/svg">
<path d="M83.9346 5.31328C76.8525 16.0782 70.1751 26.6907 64.9402 38.4693C60.3626 48.7689 58.5252 59.5108 55.5554 70.2765C51.3698 85.4492 49.0053 102.833 54.0943 118.1C55.9878 123.78 58.8696 129.916 62.6923 134.565C67.0138 139.821 74.8695 142.169 80.9 144.849C88.7406 148.334 97.1478 148.313 105.402 149.963C114.114 151.706 122.733 153.953 131.477 155.527C153.75 159.536 176.719 158.056 199.25 158.056C218.86 158.056 238.69 158.906 258.256 157.494C264.723 157.027 271.426 155.653 277.925 156.257C283.855 156.809 289.79 158.759 295.571 160.079C309.664 163.295 323.951 164.223 338.337 165.136C350.35 165.899 362.269 167.859 374.246 168.958C402.888 171.585 431.628 173.282 459.777 166.148C485.607 159.602 515.907 149.949 533.507 128.665C540.973 119.636 548.293 109.951 555.087 100.398C558.589 95.4734 567.143 87.1854 564.753 80.4481C560.948 69.7252 556.215 57.8567 550.479 48.0227C548.282 44.2567 545.042 41.146 541.15 39.1998C535.947 36.5981 529.493 36.4234 523.954 34.4231C514.321 30.9446 504.39 29.1179 494.507 26.5556C482.623 23.4747 470.22 22.9603 458.204 20.4864C444.62 17.6896 431.277 14.2563 417.518 12.3941C389.679 8.62649 361.695 10.1627 333.785 7.33636C294.357 3.34373 254.58 3.10006 214.873 2.50345C178.082 1.95068 141.184 1.79378 104.39 2.33486C96.3319 2.45337 84.4098 0.970757 78.877 8.3479" stroke="#3982F7" stroke-width="3" stroke-linecap="round"/>
<path d="M2 174.24C3.10747 152.091 16.8795 138.118 31.7842 123.214C34.6217 120.376 36.435 117.008 39.9327 115.065C41.9181 113.962 44.7417 113.548 40.4385 113.548C36.7295 113.548 33.0205 113.548 29.3115 113.548C26.3802 113.548 36.1016 113.548 37.8534 113.548C40.8078 113.548 41.8587 113.403 40.9442 116.695C39.8939 120.476 40.4385 124.815 40.4385 128.721" stroke="#3982F7" stroke-width="3" stroke-linecap="round"/>
</svg> 